# xmcd
#
# Track frame offsets:
#	150
#	16371
#	37805
#	54384
#	71318
#	82267
#	97630
#	116168
#	128035
#	153233
#	167136
#	184754
#	201466
#	214605
#	232914
#	249638
#	265916
#	287791
#	302056
#	317720
#
# Disc length: 4422 seconds
#
# Revision: 0
# Processed by: cddbd v1.4PL0 Copyright (c) Steve Scherf et al.
# Submitted via: EasyCDDAExtractor 4.6.9.1
#
DISCID=11114414
DTITLE=Emmylou Harris - Portraits - Disc 1
DYEAR=1996
DGENRE=country
TTITLE0=Boulder To Birmingham
TTITLE1=Before Believing
TTITLE2=Love Hurts
TTITLE3=In My Hour Of Darkness
TTITLE4=Angels Rejoiced Last Night
TTITLE5=Sleepness Nights
TTITLE6=Too Far Gone
TTITLE7=If I Could Only Win Your Love
TTITLE8=Till I Gain Control Again
TTITLE9=One Of Those Days
TTITLE10=Together Again
TTITLE11=Here, There And Everywhere
TTITLE12=You're Still On My Mind
TTITLE13=Sweet Dreams
TTITLE14=Luxury Liner
TTITLE15=Making Believe
TTITLE16=Pancho and Lefty
TTITLE17=Two More Bottles Of Wine
TTITLE18=You Never Can Tell
TTITLE19=Easy From Now On
EXTD=1996c YEAR: 1996 ID3G:   2
EXTT0=
EXTT1=
EXTT2=w. gram parsons
EXTT3=w. gram parsons
EXTT4=w. gram parsons
EXTT5=
EXTT6=
EXTT7=
EXTT8=
EXTT9=
EXTT10=
EXTT11=
EXTT12=
EXTT13=
EXTT14=
EXTT15=
EXTT16=
EXTT17=
EXTT18=
EXTT19=
PLAYORDER=
